<svg width="34" height="34" viewBox="0 0 34 34" fill="none" xmlns="http://www.w3.org/2000/svg">
<path d="M16.9999 14.1667C22.4767 14.1667 26.9166 12.2639 26.9166 9.91669C26.9166 7.56948 22.4767 5.66669 16.9999 5.66669C11.5231 5.66669 7.08325 7.56948 7.08325 9.91669C7.08325 12.2639 11.5231 14.1667 16.9999 14.1667Z" stroke="#5D9F2E" stroke-width="2.83333" stroke-linecap="round"/>
<path d="M9.91659 25.5L7.08325 9.91669L11.3333 14.1667H22.6666L26.9166 9.91669L24.0833 25.5L19.8333 28.3334H14.1666L9.91659 25.5Z" fill="#5D9F2E"/>
<path d="M7.08325 9.91669L9.91092 25.4717C9.91648 25.4899 9.92563 25.5067 9.93784 25.5213C11.8108 27.3942 14.3511 28.4464 16.9999 28.4464C19.6487 28.4464 22.189 27.3942 24.062 25.5213C24.0744 25.5063 24.0835 25.4889 24.0889 25.4703L26.9166 9.91669" stroke="#5D9F2E" stroke-width="2.83333" stroke-linecap="round"/>
</svg>
