<svg width="26" height="26" viewBox="0 0 26 26" fill="none" xmlns="http://www.w3.org/2000/svg">
<path fill-rule="evenodd" clip-rule="evenodd" d="M5.33599 4.26845C5.05297 4.26845 4.78155 4.38088 4.58143 4.581C4.3813 4.78112 4.26888 5.05255 4.26888 5.33556V20.2752C4.26888 20.5582 4.3813 20.8296 4.58143 21.0298C4.78155 21.2299 5.05297 21.3423 5.33599 21.3423H20.2756C20.5586 21.3423 20.8301 21.2299 21.0302 21.0298C21.2303 20.8296 21.3427 20.5582 21.3427 20.2752V14.659C21.3427 14.3759 21.4552 14.1045 21.6553 13.9044C21.8554 13.7043 22.1268 13.5918 22.4098 13.5918C22.6929 13.5918 22.9643 13.7043 23.1644 13.9044C23.3645 14.1045 23.477 14.3759 23.477 14.659V20.2752C23.477 21.1242 23.1397 21.9385 22.5393 22.5389C21.9389 23.1393 21.1247 23.4765 20.2756 23.4765H5.33599C4.48694 23.4765 3.67267 23.1393 3.0723 22.5389C2.47193 21.9385 2.13464 21.1242 2.13464 20.2752V5.33556C2.13464 4.48651 2.47193 3.67224 3.0723 3.07187C3.67267 2.4715 4.48694 2.13422 5.33599 2.13422H10.6897C10.9727 2.13422 11.2442 2.24664 11.4443 2.44677C11.6444 2.64689 11.7568 2.91832 11.7568 3.20133C11.7568 3.48435 11.6444 3.75577 11.4443 3.9559C11.2442 4.15602 10.9727 4.26845 10.6897 4.26845H5.33599Z" fill="#545454"/>
<path fill-rule="evenodd" clip-rule="evenodd" d="M22.8481 2.74459C23.0402 2.93723 23.1481 3.19818 23.1481 3.47023C23.1481 3.74228 23.0402 4.00323 22.8481 4.19587L13.4874 13.5715C13.3923 13.6667 13.2793 13.7422 13.155 13.7938C13.0307 13.8453 12.8974 13.8718 12.7628 13.8718C12.6283 13.8718 12.495 13.8453 12.3707 13.7938C12.2464 13.7422 12.1334 13.6667 12.0383 13.5715C11.8462 13.3789 11.7383 13.118 11.7383 12.8459C11.7383 12.5739 11.8462 12.3129 12.0383 12.1203L21.4001 2.74459C21.5922 2.55268 21.8526 2.44489 22.1241 2.44489C22.3956 2.44489 22.6561 2.55268 22.8481 2.74459Z" fill="#545454"/>
<path fill-rule="evenodd" clip-rule="evenodd" d="M22.4523 2.13422C23.0179 2.13422 23.4768 2.59308 23.4768 3.16078V8.53691C23.4768 9.10355 22.9752 9.60403 22.4097 9.60403C21.8441 9.60403 21.3425 9.10355 21.3425 8.53691V4.26845H17.0741C16.5085 4.26845 16.007 3.76797 16.007 3.20133C16.007 2.63469 16.4658 2.13422 17.0314 2.13422H22.4523Z" fill="#545454"/>
</svg>
